<svg width="28" height="27" viewBox="0 0 28 27" fill="none" xmlns="http://www.w3.org/2000/svg">
<path d="M18.5172 15C18.3998 15.1097 18.4341 13.7851 18.4799 13.9093C18.5258 14.0334 18.5022 14.7718 18.4967 14.9041C18.4911 15.0363 18.5804 14.8589 18.5244 14.9787C18.4683 15.0986 18.5 16 18.5 16C18.5 16 18.4756 16.5291 18.5 16.5C18.4756 16.5291 18.5 17 18.5 17C18.5 17.2338 18.5 18.5 18.5 18.6436V19.3884V25.4634C18.503 25.6425 18.4596 25.8193 18.374 25.9766C18.2883 26.1339 18.1633 26.2663 18.0112 26.3609C17.8384 26.4637 17.6386 26.512 17.4379 26.4996C17.2373 26.4871 17.045 26.4144 16.8862 26.2909L8.15625 19.5022H2.5C1.96957 19.5022 1.46086 19.2915 1.08579 18.9164C0.710714 18.5413 0.5 18.0326 0.5 17.5022V9.5022C0.5 8.97176 0.710714 8.46306 1.08579 8.08798C1.46086 7.71291 1.96957 7.5022 2.5 7.5022H7.69375C7.63188 7.55842 8.36896 7.55842 8.15625 7.55842C7.74756 7.55842 7.49901 7.67917 7.69375 7.5022C7.88849 7.32522 9.10647 7.39744 10 6.50391C10.5 6.00391 11.133 5.28088 11.3123 5.47349L18.5172 15ZM22.5662 17.5022C22.8234 17.4801 23.0626 17.3615 23.2359 17.1702C23.4091 16.9788 23.5035 16.729 23.5 16.4709V10.5359C23.5041 10.2774 23.41 10.027 23.2367 9.83515C23.0634 9.6433 22.8238 9.52431 22.5662 9.5022C22.4295 9.49311 22.2923 9.51225 22.1632 9.55842C22.0341 9.6046 21.9159 9.67682 21.8159 9.77059C21.7159 9.86437 21.6363 9.97771 21.5819 10.1036C21.5276 10.2294 21.4997 10.3651 21.5 10.5022V16.5022C21.4997 16.6393 21.5276 16.775 21.5819 16.9008C21.6363 17.0267 21.7159 17.14 21.8159 17.2338C21.9159 17.3276 22.0341 17.3998 22.1632 17.446C22.2923 17.4921 22.4295 17.5113 22.5662 17.5022ZM18.2762 14.6516C18.3437 14.7282 18.4252 14.9544 18.5244 14.9787C18.6236 15.003 18.4799 15.0273 18.5 15.0884C18.5 15 18.4428 12.5885 18.5 12.5039C18.5572 12.4193 18.5014 12.2506 18.5 12.1484V1.5322C18.5023 1.38079 18.4713 1.23074 18.409 1.09269C18.3468 0.954641 18.255 0.831989 18.14 0.733446C17.9649 0.588583 17.7457 0.50767 17.5185 0.504034C17.2913 0.500399 17.0696 0.574258 16.89 0.713446L11.4788 4.91845C11.4244 4.96078 11.3793 5.0139 11.3464 5.07447C11.3136 5.13504 11.2936 5.20175 11.2877 5.27041C11.2818 5.33908 11.2902 5.40822 11.3123 5.47349C11.3345 5.53876 11.3698 5.59875 11.4163 5.6497L18.2762 14.6516ZM26.4338 7.5022C26.1762 7.52431 25.9366 7.6433 25.7633 7.83516C25.59 8.02701 25.4959 8.27745 25.5 8.53594V18.4684C25.4965 18.7265 25.5909 18.9763 25.7641 19.1677C25.9374 19.359 26.1766 19.4776 26.4338 19.4997C26.5705 19.5088 26.7077 19.4896 26.8368 19.4435C26.9659 19.3973 27.0841 19.3251 27.1841 19.2313C27.2841 19.1375 27.3637 19.0242 27.4181 18.8983C27.4724 18.7725 27.5003 18.6368 27.5 18.4997V8.5022C27.5003 8.36511 27.4724 8.22942 27.4181 8.10357C27.3637 7.97771 27.2841 7.86437 27.1841 7.7706C27.0841 7.67682 26.9659 7.6046 26.8368 7.55842C26.7077 7.51225 26.5705 7.49311 26.4338 7.5022Z" fill="white"/>
</svg>
