<svg width="27" height="26" viewBox="0 0 27 26" fill="none" xmlns="http://www.w3.org/2000/svg">
<path d="M24.74 23.3258C24.8302 23.4226 24.9002 23.5364 24.9461 23.6606C24.9919 23.7847 25.0127 23.9167 25.0072 24.0489C25.0017 24.1811 24.97 24.3109 24.9139 24.4308C24.8578 24.5507 24.7785 24.6582 24.6806 24.7472C24.5827 24.8362 24.4681 24.9049 24.3434 24.9493C24.2187 24.9936 24.0865 25.0128 23.9543 25.0057C23.8222 24.9986 23.6928 24.9653 23.5736 24.9079C23.4544 24.8504 23.3478 24.7698 23.26 24.6708L18 18.8845V24.9595C18.003 25.1386 17.9596 25.3154 17.874 25.4727C17.7883 25.63 17.6633 25.7624 17.5112 25.857C17.3384 25.9598 17.1386 26.0081 16.9379 25.9956C16.7373 25.9832 16.545 25.9105 16.3862 25.787L7.65625 18.9983H2C1.46957 18.9983 0.960859 18.7876 0.585786 18.4125C0.210714 18.0374 0 17.5287 0 16.9983V8.99829C0 8.46786 0.210714 7.95915 0.585786 7.58408C0.960859 7.209 1.46957 6.99829 2 6.99829H7.19375L3.26 2.67079C3.08537 2.47394 2.99537 2.2162 3.00951 1.95344C3.02364 1.69068 3.14078 1.44408 3.33552 1.26711C3.53025 1.09013 3.7869 0.997049 4.04981 1.00803C4.31272 1.01902 4.5607 1.13319 4.74 1.32579L24.74 23.3258ZM22.0662 16.9983C22.3234 16.9762 22.5626 16.8576 22.7359 16.6662C22.9091 16.4749 23.0035 16.2251 23 15.967V10.032C23.0041 9.77354 22.91 9.5231 22.7367 9.33125C22.5634 9.1394 22.3238 9.02041 22.0662 8.99829C21.9295 8.98921 21.7923 9.00835 21.6632 9.05452C21.5341 9.10069 21.4159 9.17291 21.3159 9.26669C21.2159 9.36047 21.1363 9.47381 21.0819 9.59966C21.0276 9.72552 20.9997 9.8612 21 9.99829V15.9983C20.9997 16.1354 21.0276 16.2711 21.0819 16.3969C21.1363 16.5228 21.2159 16.6361 21.3159 16.7299C21.4159 16.8237 21.5341 16.8959 21.6632 16.9421C21.7923 16.9882 21.9295 17.0074 22.0662 16.9983ZM17.125 11.982C17.1926 12.0587 17.282 12.1128 17.3812 12.137C17.4804 12.1613 17.5847 12.1546 17.68 12.1179C17.7753 12.0811 17.857 12.016 17.9143 11.9314C17.9715 11.8468 18.0014 11.7467 18 11.6445V1.02829C18.0023 0.876886 17.9713 0.72683 17.909 0.588783C17.8468 0.450735 17.755 0.328083 17.64 0.229539C17.4649 0.0846764 17.2457 0.00376345 17.0185 0.000128064C16.7913 -0.00350732 16.5696 0.0703517 16.39 0.209539L10.9788 4.41454C10.9244 4.45687 10.8793 4.50999 10.8464 4.57056C10.8136 4.63113 10.7936 4.69784 10.7877 4.76651C10.7818 4.83517 10.7902 4.90431 10.8123 4.96958C10.8345 5.03485 10.8698 5.09484 10.9163 5.14579L17.125 11.982ZM25.9338 6.99829C25.6762 7.02041 25.4366 7.1394 25.2633 7.33125C25.09 7.5231 24.9959 7.77354 25 8.03204V17.9645C24.9965 18.2226 25.0909 18.4724 25.2641 18.6637C25.4374 18.8551 25.6766 18.9737 25.9338 18.9958C26.0705 19.0049 26.2077 18.9857 26.3368 18.9396C26.4659 18.8934 26.5841 18.8212 26.6841 18.7274C26.7841 18.6336 26.8637 18.5203 26.9181 18.3944C26.9724 18.2686 27.0003 18.1329 27 17.9958V7.99829C27.0003 7.8612 26.9724 7.72552 26.9181 7.59966C26.8637 7.47381 26.7841 7.36047 26.6841 7.26669C26.5841 7.17291 26.4659 7.10069 26.3368 7.05452C26.2077 7.00835 26.0705 6.98921 25.9338 6.99829Z" fill="white"/>
</svg>
